<svg width="250" height="250" viewBox="0 0 250 250" fill="none" xmlns="http://www.w3.org/2000/svg">
<rect width="250" height="250" fill="white"/>
<path d="M249.5 125C249.5 193.759 193.759 249.5 125 249.5C56.2406 249.5 0.5 193.759 0.5 125C0.5 56.2406 56.2406 0.5 125 0.5C193.759 0.5 249.5 56.2406 249.5 125Z" fill="#2C1D3A" stroke="black"/>
<path d="M118.595 63.9247L43.9405 125.81M43.9405 125.81L41.6075 127.744M43.9405 125.81L40.5823 123.064M43.9405 125.81L118.004 186.357" stroke="#F2994A" stroke-width="5"/>
<path d="M119.412 82.6061V186M119 82L186.843 96.7706M187 97.9139L119.157 144.687M119.266 143.715L153.188 185.565" stroke="#2D9CDB" stroke-width="5"/>
</svg>
